<svg width="48" height="48" viewBox="0 0 48 48" fill="none" xmlns="http://www.w3.org/2000/svg">
<path d="M23.8782 0C10.7092 0 0 10.7638 0 24C0 37.2362 10.7092 48 23.8782 48C29.5054 48 34.9819 45.9708 39.298 42.2974L39.3909 42.2157L48 42.3207L43.4518 37.7376L39.4721 33.7259L35.5504 29.7959L35.2835 29.586L30.0508 24.3265H29.9695L21.7433 24.1633L28.3336 30.7872H23.8782C20.1537 30.7872 17.1138 27.7318 17.1138 23.9883C17.1138 20.2449 20.1537 17.1895 23.8782 17.1895C27.6026 17.1895 30.4569 20.0583 30.6309 23.6501H36.1189C35.9449 17.0146 30.5149 11.6851 23.8782 11.6851C17.2415 11.6851 11.6374 17.2012 11.6374 23.9883C11.6374 30.7755 17.1255 36.2915 23.8782 36.2915C26.4423 36.2915 28.9021 35.4869 31.0138 33.9475L31.2458 33.7843L35.62 38.1808L35.3299 38.414C32.0348 41.0612 28.0783 42.4723 23.8782 42.4723C13.7375 42.4723 5.47643 34.1808 5.47643 23.9767C5.47643 13.7726 13.7375 5.50437 23.8782 5.50437C34.0189 5.50437 42.2799 13.7959 42.2799 24C42.2799 24.6997 42.2335 25.4344 42.1175 26.2974L46.7353 30.9388C47.4199 28.688 47.7563 26.344 47.7563 24C47.7679 10.7638 37.0471 0 23.8782 0Z" fill="#8D8CAB"/>
</svg>
