<svg width="337" height="60" viewBox="0 0 337 60" fill="none" xmlns="http://www.w3.org/2000/svg">
<path d="M120.463 42.6968L120.683 42.6094L121.837 43.9942H128.252L119.82 33.4986H113.186L117 38.1341L116.723 38.3382C116.723 38.3382 116.606 38.4257 116.533 38.4548L116.387 38.5277C116.138 38.6443 115.934 38.7464 115.729 38.8047C113.07 39.7231 110.308 39.7959 107.517 39.0379C104.419 38.1924 102.461 36.1516 101.672 32.9738C101.088 30.6123 101.117 28.2653 101.774 25.9767C102.578 23.1341 104.39 21.2537 107.152 20.379C109.826 19.5335 112.543 19.519 115.203 20.3499C117.57 21.0933 119.28 22.6094 120.288 24.898C120.843 26.1516 121.135 27.4198 121.165 28.6589C121.194 29.5773 121.165 30.4665 121.136 31.414C121.136 31.7784 121.106 32.1429 121.106 32.5073H127.156L126.834 32.449C126.864 32.347 126.878 32.2303 126.893 32.1283C127.214 29.6502 127.053 27.1866 126.411 24.7959C125.198 20.2916 122.436 17.2741 118.213 15.7872C115.934 14.9854 113.61 14.5919 111.272 14.5919C109.051 14.5919 106.816 14.9417 104.565 15.656C100.43 16.968 97.6536 19.7231 96.3531 23.8338C95.228 27.3615 95.1549 31.035 96.134 34.7522C97.1568 38.6298 99.4802 41.4286 103.06 43.0904C104.814 43.9067 106.801 44.4024 108.949 44.5627C112.602 44.8397 115.568 44.5481 118.228 43.6152C118.754 43.4257 119.265 43.207 119.791 42.9884C120.01 42.8863 120.23 42.7989 120.449 42.7114L120.463 42.6968Z" fill="white"/>
<path d="M187.168 38.9359H177.1V44.0088H195.161L182.945 15.3062H175.581L163.862 44.0088H169.867L179.365 20.3207L187.168 38.9359Z" fill="white"/>
<path d="M284.106 23.0758V25.7872C284.106 27.9738 284.106 30.175 284.106 32.3615C284.106 33.0175 284.062 33.6735 284.004 34.3441C283.741 36.9096 282.294 38.6443 279.941 39.2274C278.246 39.6502 276.537 39.6356 274.856 39.1983C272.781 38.6589 271.495 37.3324 271.013 35.277C270.794 34.3586 270.692 33.3382 270.677 32.2595C270.648 28.1924 270.663 24.0671 270.663 20.0729V15.3062H264.891V20.4082C264.891 24.3732 264.891 28.484 264.905 32.5219C264.905 33.9796 265.051 35.3207 265.285 36.5015C266.06 40.379 268.354 42.8863 272.065 43.9505C275.441 44.9126 278.977 44.9563 282.484 44.0671C286.371 43.0904 288.767 40.5685 289.615 36.6035C290.053 34.5627 290.024 32.449 290.009 30.4082C290.009 29.4315 289.98 28.4548 290.009 27.4782L284.077 23.0613L284.106 23.0758Z" fill="white"/>
<path d="M158.09 38.9942C158.762 37.5365 159.127 35.9767 159.171 34.3586C159.215 32.7697 159.23 31.1371 159.23 29.5773C159.23 28.9359 159.23 28.2945 159.23 27.6531C159.23 27.5948 159.23 27.5511 159.215 27.4927V27.4344L153.326 23.0613V25.9621C153.326 28.1487 153.326 30.4082 153.326 32.6239C153.326 33.4694 153.253 34.2566 153.122 34.9417C152.698 37.2304 151.354 38.6735 149.147 39.2274C147.496 39.6356 145.83 39.6356 144.179 39.2274C142.06 38.6881 140.745 37.3615 140.263 35.2916C140.044 34.3586 139.942 33.3382 139.927 32.2304C139.898 28.1779 139.912 24.0671 139.912 20.0729V15.3062H134.14V15.379C134.14 15.5102 134.126 15.6269 134.126 15.7289V20.0146C134.126 24.1545 134.126 28.4111 134.126 32.6094C134.126 33.7901 134.228 34.9271 134.403 35.9767C135.149 40.277 137.589 43.0029 141.68 44.0525C145.07 44.9271 148.548 44.9126 151.938 44.0088C154.846 43.2362 156.906 41.5452 158.09 38.9942V38.9942Z" fill="white"/>
<path d="M330.222 22.5073V44.0088H336.082V15.3207H328.571L316.238 31.5015L303.949 15.3353H297.71L297.739 24.14V44.0088H303.569V24.1546L316.238 40.1312L330.222 22.5073Z" fill="white"/>
<path d="M258.301 15.3062H236.602V20.4082H244.624V43.9942H250.279V20.3645H258.301V15.3062Z" fill="white"/>
<path d="M229.047 43.9942V15.3207H223.392V37.2012L205.667 15.3062H202.058V43.9942H207.728V25.9913L222.033 43.9942H229.047Z" fill="white"/>
<path d="M289.98 15.3062H284.135V21.3266H289.98V15.3062Z" fill="white"/>
<path d="M159.186 15.3062H153.385V21.3411H159.186V15.3062Z" fill="white"/>
<path d="M30.072 0C13.4871 0 0 13.4548 0 30C0 46.5452 13.4871 60 30.072 60C37.1589 60 44.0559 57.4636 49.4917 52.8717L49.6086 52.7697L60.4509 52.9009L54.7229 47.172L49.7109 42.1574L44.7719 37.2449L44.4358 36.9825L37.8457 30.4082H37.7434L27.3833 30.2041L35.6831 38.484H30.072C25.3815 38.484 21.5531 34.6647 21.5531 29.9854C21.5531 25.3061 25.3815 21.4869 30.072 21.4869C34.7625 21.4869 38.3571 25.0729 38.5763 29.5627H45.4879C45.2687 21.2682 38.4302 14.6064 30.072 14.6064C21.7138 14.6064 14.6561 21.5015 14.6561 29.9854C14.6561 38.4694 21.5677 45.3644 30.072 45.3644C33.3013 45.3644 36.3991 44.3586 39.0585 42.4344L39.3508 42.2303L44.8596 47.726L44.4943 48.0175C40.3444 51.3265 35.3616 53.0904 30.072 53.0904C17.3009 53.0904 6.89698 42.7259 6.89698 29.9708C6.89698 17.2157 17.3009 6.88047 30.072 6.88047C42.8431 6.88047 53.247 17.2449 53.247 30C53.247 30.8746 53.1886 31.793 53.0424 32.8717L58.8581 38.6735C59.7202 35.8601 60.144 32.93 60.144 30C60.1586 13.4548 46.6569 0 30.072 0Z" fill="white"/>
</svg>
